<svg class="gnaas-icon" xmlns="http://www.w3.org/2000/svg" preserveAspectRatio="xMinYMin meet" viewBox="0 0 52.813 10.142">
<g id="icon-logo">
	<path style="fill:#5FCF80;" d="M0,5.099V5.071C0,2.284,2.171,0,5.141,0c1.485,0,2.465,0.336,3.348,0.953
		c0.21,0.154,0.448,0.448,0.448,0.869c0,0.588-0.476,1.064-1.064,1.064c-0.308,0-0.504-0.112-0.659-0.224
		c-0.588-0.42-1.218-0.672-2.143-0.672c-1.569,0-2.815,1.387-2.815,3.054v0.028c0,1.793,1.233,3.11,2.97,3.11
		c0.784,0,1.485-0.196,2.031-0.588V6.191H5.799c-0.518,0-0.938-0.406-0.938-0.924s0.42-0.938,0.938-0.938h2.465
		c0.603,0,1.079,0.476,1.079,1.079v2.381c0,0.63-0.238,1.064-0.756,1.373c-0.798,0.49-1.961,0.98-3.432,0.98
		C2.102,10.142,0,7.999,0,5.099z
		M11.929,1.191c0-0.603,0.476-1.079,1.079-1.079h0.224
		c0.518,0,0.826,0.252,1.121,0.63l4.16,5.463V1.149c0-0.588,0.476-1.064,1.064-1.064s1.064,0.476,1.064,1.064v7.802
		c0,0.602-0.476,1.079-1.079,1.079h-0.07c-0.518,0-0.827-0.252-1.121-0.63L14.058,3.74v5.253c0,0.588-0.476,1.064-1.064,1.064
		s-1.064-0.476-1.064-1.064V1.191z
	M22.676,8.587l3.418-7.718c0.238-0.532,0.672-0.854,1.261-0.854h0.126
		c0.588,0,1.008,0.322,1.247,0.854l3.418,7.718c0.07,0.154,0.112,0.294,0.112,0.434c0,0.574-0.448,1.037-1.022,1.037
		c-0.504,0-0.84-0.294-1.037-0.742L29.54,7.774h-4.314l-0.687,1.611c-0.182,0.42-0.546,0.672-0.994,0.672
		c-0.561,0-0.995-0.448-0.995-1.008C22.55,8.895,22.605,8.741,22.676,8.587z M28.741,5.87l-1.359-3.236L26.023,5.87H28.741z
	M33.97,8.587l3.418-7.718c0.238-0.532,0.672-0.854,1.261-0.854h0.126
		c0.588,0,1.008,0.322,1.247,0.854l3.418,7.718c0.07,0.154,0.112,0.294,0.112,0.434c0,0.574-0.448,1.037-1.022,1.037
		c-0.504,0-0.84-0.294-1.037-0.742l-0.658-1.541h-4.314l-0.687,1.611c-0.182,0.42-0.546,0.672-0.994,0.672
		c-0.561,0-0.995-0.448-0.995-1.008C33.844,8.895,33.899,8.741,33.97,8.587z M40.035,5.87l-1.359-3.236L37.317,5.87H40.035z
	M45.529,8.937c-0.238-0.168-0.406-0.476-0.406-0.813
		c0-0.56,0.448-0.995,1.009-0.995c0.28,0,0.476,0.098,0.616,0.196c0.742,0.546,1.555,0.882,2.507,0.882
		c0.882,0,1.415-0.35,1.415-0.924V7.256c0-0.546-0.336-0.827-1.975-1.247c-1.975-0.504-3.25-1.05-3.25-2.998V2.984
		c0-1.779,1.429-2.956,3.432-2.956c1.191,0,2.228,0.308,3.11,0.868c0.238,0.14,0.476,0.435,0.476,0.854
		c0,0.561-0.448,0.995-1.008,0.995c-0.21,0-0.378-0.056-0.546-0.154c-0.714-0.42-1.387-0.659-2.059-0.659
		c-0.827,0-1.261,0.378-1.261,0.854v0.028c0,0.644,0.42,0.854,2.115,1.289c1.989,0.518,3.11,1.232,3.11,2.941v0.028
		c0,1.947-1.485,3.04-3.6,3.04C47.925,10.114,46.622,9.722,45.529,8.937z"/>
</g>
</svg>